# This file uses centimeters as units for non-parametric coordinates.

mtllib Rock_med_01.mtl
g default
v 3.055675 -0.000000 3.124107
v 4.058741 -0.000000 2.917410
v 3.773239 0.883499 1.942648
v 4.132450 -0.000000 1.967782
v 3.771446 0.398567 1.845426
v 3.381210 -0.000000 1.928428
v 2.857201 -0.000000 2.494694
v 3.572476 -0.000000 3.220427
v 3.197476 0.398567 2.869694
v 4.117524 0.773567 2.494694
v 3.720664 0.688923 2.973509
v 3.572476 1.159634 2.494694
v 3.289770 0.666706 2.123790
v 3.072476 0.821489 2.494694
vt 0.695883 0.806873
vt 0.866553 0.153534
vt 0.374260 1.000000
vt 0.603583 0.000000
vt 0.275357 0.503467
vt 0.038388 0.706086
vt 0.396346 0.194703
vt 0.079667 0.994567
vt 0.410683 0.801802
vt 0.356754 0.644557
vt 0.450342 0.505311
vt 0.491828 0.620556
vt 0.565617 0.937333
vt 0.771384 0.029725
vt 0.576119 0.737634
vt 0.225278 0.756257
vt 0.378412 0.358062
vt 0.000000 0.848429
vt 0.558683 0.352467
vt 0.785876 0.331664
vt 0.706846 0.574309
vn -0.150617 0.569428 0.808125
vn -0.150617 0.569428 0.808125
vn -0.150617 0.569428 0.808125
vn -0.379839 0.383431 0.841845
vn -0.379839 0.383431 0.841845
vn -0.379839 0.383431 0.841845
vn 0.519535 0.187063 0.833721
vn 0.519535 0.187063 0.833721
vn 0.519535 0.187063 0.833721
vn 0.567003 0.800495 -0.194206
vn 0.567003 0.800495 -0.194206
vn 0.567003 0.800495 -0.194206
vn -0.504199 0.684937 -0.525971
vn -0.504199 0.684937 -0.525971
vn -0.504199 0.684937 -0.525971
vn -0.414983 0.180325 -0.891780
vn -0.414983 0.180325 -0.891780
vn -0.414983 0.180325 -0.891780
vn -0.400826 0.206569 -0.892563
vn -0.400826 0.206569 -0.892563
vn -0.400826 0.206569 -0.892563
vn 0.050640 -0.250896 -0.966689
vn 0.050640 -0.250896 -0.966689
vn 0.050640 -0.250896 -0.966689
vn 0.000000 -1.000000 -0.000000
vn 0.000000 -1.000000 -0.000000
vn 0.000000 -1.000000 -0.000000
vn 0.000000 -1.000000 -0.000000
vn 0.000000 -1.000000 -0.000000
vn 0.000000 -1.000000 -0.000000
vn 0.709101 0.295861 0.640033
vn 0.709101 0.295861 0.640032
vn 0.709101 0.295861 0.640033
vn 0.490517 0.692512 0.528981
vn 0.490517 0.692512 0.528981
vn 0.490517 0.692512 0.528981
vn -0.730437 0.097883 -0.675930
vn -0.730437 0.097883 -0.675930
vn -0.730437 0.097883 -0.675930
vn -0.802705 0.210352 -0.558048
vn -0.802705 0.210352 -0.558048
vn -0.802705 0.210352 -0.558048
vn -0.842227 0.469169 0.265581
vn -0.842227 0.469169 0.265581
vn -0.842227 0.469169 0.265581
vn -0.826430 0.216569 0.519722
vn -0.826430 0.216569 0.519722
vn -0.826430 0.216569 0.519722
vn -0.464567 0.686936 -0.558835
vn -0.464568 0.686936 -0.558835
vn -0.464568 0.686936 -0.558835
vn 0.673872 0.424777 -0.604534
vn 0.673872 0.424777 -0.604534
vn 0.673872 0.424777 -0.604534
vn 0.853077 0.099534 -0.512203
vn 0.853077 0.099534 -0.512203
vn 0.853077 0.099534 -0.512203
vn 0.996443 -0.033455 0.077343
vn 0.996443 -0.033455 0.077343
vn 0.996443 -0.033455 0.077343
vn -0.435207 0.521883 0.733644
vn -0.435206 0.521883 0.733644
vn -0.435206 0.521883 0.733644
vn -0.398567 0.589344 0.702722
vn -0.398567 0.589344 0.702722
vn -0.398567 0.589344 0.702722
s off
g Rock_med_01
usemtl lambert7SG
f 1/1/1 8/13/2 9/15/3
f 9/15/4 8/13/5 11/9/6
f 8/13/7 2/3/8 11/9/9
f 10/16/10 3/5/11 12/10/12
f 12/10/13 3/5/14 13/11/15
f 13/11/16 3/5/17 5/17/18
f 13/11/19 5/17/20 6/19/21
f 6/19/22 5/17/23 4/7/24
f 8/14/25 1/2/26 7/20/27 6/19/28 4/7/29 2/4/30
f 10/16/31 11/9/32 2/3/33
f 11/9/34 10/16/35 12/10/36
f 6/19/37 7/21/38 13/11/39
f 13/11/40 7/21/41 14/12/42
f 1/1/43 9/15/44 7/21/45
f 7/21/46 9/15/47 14/12/48
f 14/12/49 12/10/50 13/11/51
f 4/8/52 5/18/53 10/16/54
f 10/16/55 5/18/56 3/6/57
f 10/16/58 2/3/59 4/8/60
f 9/15/61 11/9/62 14/12/63
f 14/12/64 11/9/65 12/10/66
